:SAMPLES-PER-SECOND 30
:FRAME-RANGE 1-3535
:FULLY-SPECIFIED
:DEGREES
221
root  -57.9871 38.4504 -51.2394 8.35736 37.3769 -0.448822
RightUpLeg  -30.4816 -15.2821 8.94467
RightLeg  11.5971 -17.119 -0.0152421
RightFoot  -6.51955 -0.240854 4.66378
RightToes  1.22775e-009 1.2921e-014 -6.02303e-014
Spine  7.73407 -2.40485 -6.16995
Spine1  -3.73907 -3.21974 2.90388
HEad  -7.05684 -5.44039 6.64245
LeftShoulder1  1.50689 -0.773123 -29.1596
LeftArm  -0.603179 -19.2079 -29.7801
LeftForeArm  9.63163 -12.6538 -12.1695
LeftHand  0.139763 -3.67843 -1.53565
RightShoulder  3.63698 2.8795 49.9725
RightArm  13.1865 -5.47479 12.5253
RightForeArm  10.5476 1.6804 17.3386
RightHand  0.178666 4.87529 1.71836
LeftUpLeg  8.31901 13.0711 6.63353
LeftLeg  6.37277 20.6433 -2.74193
LeftFoot  -16.4914 -0.782005 -19.4069
LeftToes  2.52163e-011 5.65494e-011 -1.09494e-012
222
root  -57.1881 38.2673 -50.3908 7.61432 36.3552 -1.12593
RightUpLeg  -31.6721 -17.4646 12.1446
RightLeg  15.6715 -12.1587 -2.56979
RightFoot  -4.80358 0.110052 -2.49526
RightToes  1.22775e-009 1.2921e-014 -6.02303e-014
Spine  7.83606 -2.20276 -4.88854
Spine1  -3.36066 -3.28065 3.54944
HEad  -7.04572 -4.80983 5.42818
LeftShoulder1  1.50354 -0.826191 -28.6404
LeftArm  4.92175 -21.0741 -32.3778
LeftForeArm  7.33224 -13.9746 -11.6354
LeftHand  0.0963286 -3.55136 -1.00195
RightShoulder  3.50027 2.63551 50.011
RightArm  10.5161 -5.53557 11.0745
RightForeArm  12.2413 0.643565 17.2647
RightHand  0.210185 5.15827 2.00131
LeftUpLeg  10.6761 13.5077 7.72869
LeftLeg  7.05159 20.0641 -2.76593
LeftFoot  -16.7934 -0.935816 -21.5239
LeftToes  2.52163e-011 5.65494e-011 -1.09494e-012
223
root  -56.3774 38.0524 -49.3759 6.62778 34.9081 -2.24242
RightUpLeg  -32.1682 -15.5278 12.7962
RightLeg  21.565 -11.9651 -5.36737
RightFoot  -6.5591 0.079859 -2.9737
RightToes  1.22775e-009 1.2921e-014 -6.02303e-014
Spine  7.88318 -1.93869 -3.46285
Spine1  -3.40056 -3.02187 4.17615
HEad  -7.4611 -3.91408 4.23659
LeftShoulder1  1.50639 -0.90453 -28.0754
LeftArm  13.3917 -21.2792 -35.3557
LeftForeArm  3.31629 -16.7088 -9.90833
LeftHand  0.0973776 -3.72896 -0.983335
RightShoulder  3.69416 2.9797 49.9715
RightArm  6.12077 -4.55538 9.40549
RightForeArm  15.0346 -1.73418 17.1149
RightHand  0.169648 5.05983 1.57664
LeftUpLeg  12.2649 15.2527 9.71321
LeftLeg  10.2381 18.4561 -1.89106
LeftFoot  -16.8348 -1.10916 -24.8444
LeftToes  2.52163e-011 5.65494e-011 -1.09494e-012
224
root  -55.5545 37.921 -48.2847 5.18173 33.3488 -3.63924
RightUpLeg  -30.7682 -14.1832 13.1173
RightLeg  24.9573 -11.768 -6.12969
RightFoot  -7.7237 0.0702733 -3.87565
RightToes  1.22775e-009 1.2921e-014 -6.02303e-014
Spine  7.96848 -1.91284 -1.66397
Spine1  -2.9076 -2.98594 4.82727
HEad  -7.63615 -2.48748 3.3676
LeftShoulder1  1.54384 -1.06982 -27.6498
LeftArm  22.0032 -19.6353 -37.5807
LeftForeArm  -1.04082 -20.2432 -7.02121
LeftHand  0.153356 -4.3806 -1.54055
RightShoulder  4.19595 3.90736 49.6404
RightArm  0.814642 -3.10464 8.01935
RightForeArm  17.1226 -4.23741 16.6079
RightHand  0.134437 4.87027 1.21979
LeftUpLeg  13.8254 24.1797 13.8785
LeftLeg  15.3754 9.696 0.857617
LeftFoot  -15.1896 -0.924496 -29.5765
LeftToes  2.52163e-011 5.65494e-011 -1.09494e-012
225
root  -54.8208 37.7698 -47.2201 4.62273 31.933 -4.40106
RightUpLeg  -29.7258 -13.5942 13.3374
RightLeg  27.8692 -11.2009 -6.58639
RightFoot  -10.2432 -0.0318547 -3.89574
RightToes  1.22775e-009 1.2921e-014 -6.02303e-014
Spine  8.21149 -1.8841 -0.340969
Spine1  -3.06664 -2.92548 5.54692
HEad  -6.74309 -1.37056 3.16658
LeftShoulder1  1.58014 -1.21408 -27.3809
LeftArm  27.125 -17.6431 -39.1438
LeftForeArm  -1.73983 -22.6146 -5.34963
LeftHand  0.232981 -4.96785 -2.30895
RightShoulder  4.6007 4.74428 48.8972
RightArm  -2.69429 -2.16899 7.2525
RightForeArm  15.7346 -4.54047 16.2244
RightHand  0.126379 4.55829 1.18418
LeftUpLeg  10.8136 24.5525 14.6066
LeftLeg  24.9723 9.05811 4.90896
LeftFoot  -10.2623 0.398777 -34.8665
LeftToes  2.52163e-011 5.65494e-011 -1.09494e-012
226
root  -54.1621 37.6254 -46.2746 4.1432 30.5515 -5.48703
RightUpLeg  -28.664 -13.3626 13.9311
RightLeg  29.8946 -10.3513 -6.61472
RightFoot  -12.8005 -0.12426 -2.9631
RightToes  1.22775e-009 1.2921e-014 -6.02303e-014
Spine  8.56599 -1.82141 2.36609
Spine1  -3.14265 -2.39359 5.06061
HEad  -6.0067 -1.04614 3.3233
LeftShoulder1  1.57457 -1.18962 -27.4382
LeftArm  28.3807 -16.6076 -40.254
LeftForeArm  1.31947 -23.6966 -4.99939
LeftHand  0.314784 -5.59274 -3.00448
RightShoulder  4.82727 5.29922 48.0611
RightArm  -4.64993 -1.20938 7.13923
RightForeArm  13.6714 -2.70867 15.9193
RightHand  0.121384 4.20397 1.19118
LeftUpLeg  3.46229 19.6911 13.5175
LeftLeg  38.6757 10.41 9.17921
LeftFoot  1.54341 2.55894 -22.4881
LeftToes  2.52163e-011 5.65494e-011 -1.09494e-012
227
root  -53.5059 37.3658 -45.4712 3.08929 29.1819 -7.2372
RightUpLeg  -27.5938 -12.6838 14.8793
RightLeg  32.2485 -9.65298 -6.76558
RightFoot  -15.4125 -0.170672 -1.86984
RightToes  1.22775e-009 1.2921e-014 -6.02303e-014
Spine  9.21912 -1.81843 6.43238
Spine1  -2.55086 -1.65864 4.17929
HEad  -6.60434 -1.07266 3.40575
LeftShoulder1  1.57491 -1.15296 -27.7172
LeftArm  27.6954 -15.9005 -40.7784
LeftForeArm  3.93991 -24.4869 -5.03427
LeftHand  0.360436 -5.58563 -3.48902
RightShoulder  5.27228 6.2703 47.2581
RightArm  -3.65105 -0.146315 7.16721
RightForeArm  10.5661 1.24218 15.677
RightHand  0.0887163 4.14194 0.805496
LeftUpLeg  -4.62924 16.3296 13.5604
LeftLeg  51.327 5.57 7.85846
LeftFoot  11.6728 1.28416 -6.65507
LeftToes  2.52163e-011 5.65494e-011 -1.09494e-012
228
root  -52.7765 37.4076 -44.4875 2.46423 27.8023 -7.49536
RightUpLeg  -24.7696 -11.4842 14.1556
RightLeg  32.5761 -9.57681 -6.80102
RightFoot  -17.2778 -0.15084 -0.65521
RightToes  1.22775e-009 1.2921e-014 -6.02303e-014
Spine  9.91166 -1.61106 8.30074
Spine1  -2.27741 -1.00104 3.46939
HEad  -7.19367 -1.13436 3.35026
LeftShoulder1  1.57094 -1.08241 -28.1618
LeftArm  26.755 -14.8692 -40.7651
LeftForeArm  4.37739 -24.8096 -5.08297
LeftHand  0.360476 -5.44683 -3.54253
RightShoulder  5.85402 7.51011 46.5431
RightArm  0.484017 1.16864 7.29604
RightForeArm  6.37982 6.1061 14.9683
RightHand  0.0328655 4.00373 0.136819
LeftUpLeg  -11.6018 13.9253 12.8927
LeftLeg  59.8571 0.309109 1.12712
LeftFoot  5.85653 1.28675 -8.73365
LeftToes  2.52163e-011 5.65494e-011 -1.09494e-012
229
root  -51.994 37.6602 -43.3466 2.23907 26.3456 -6.76912
RightUpLeg  -20.7822 -10.4469 12.4745
RightLeg  31.1327 -9.54417 -6.38646
RightFoot  -18.4899 -0.0966744 0.455349
RightToes  1.22775e-009 1.2921e-014 -6.02303e-014
Spine  10.3301 -1.2058 9.03261
Spine1  -2.39743 -0.346022 2.4928
HEad  -7.18098 -1.20218 3.26893
LeftShoulder1  1.56147 -0.98027 -28.7432
LeftArm  25.3603 -13.3149 -40.01
LeftForeArm  3.7107 -24.9862 -5.15704
LeftHand  0.361305 -5.24189 -3.63253
RightShoulder  6.36773 8.62196 45.9629
RightArm  5.71102 2.73069 7.75251
RightForeArm  2.31996 10.728 13.3819
RightHand  -0.0221281 4.17452 -0.544064
LeftUpLeg  -17.7311 11.9189 11.4114
LeftLeg  62.677 -1.03106 -1.57789
LeftFoot  3.09124 1.18731 -9.51019
LeftToes  2.52163e-011 5.65494e-011 -1.09494e-012
230
root  -51.1775 38.0143 -42.0949 2.48436 24.6777 -5.4561
RightUpLeg  -16.2088 -7.95476 9.75836
RightLeg  28.4626 -10.7902 -5.38764
RightFoot  -19.2036 -0.019564 1.60712
RightToes  1.22775e-009 1.2921e-014 -6.02303e-014
Spine  10.278 -0.614987 9.30537
Spine1  -2.8972 0.391236 0.702069
HEad  -6.75138 -1.33114 3.09872
LeftShoulder1  1.52552 -0.796259 -29.4082
LeftArm  23.1507 -11.2462 -38.4544
LeftForeArm  3.06715 -25.3948 -5.2822
LeftHand  0.396934 -5.16262 -4.05612
RightShoulder  6.79115 9.59993 45.3339
RightArm  12.0976 3.99119 8.65974
RightForeArm  -3.32183 15.5451 10.68
RightHand  -0.0312185 4.29739 -0.653983
LeftUpLeg  -22.9931 11.2075 9.73897
LeftLeg  60.4689 0.18107 0.903259
LeftFoot  0.195926 0.846154 -8.37866
LeftToes  2.52163e-011 5.65494e-011 -1.09494e-012
231
root  -50.3964 38.4219 -40.784 2.99037 22.6001 -3.68423
RightUpLeg  -11.2915 -5.47129 6.8622
RightLeg  24.482 -11.4333 -3.88168
RightFoot  -19.1563 0.0115997 2.06869
RightToes  1.22775e-009 1.2921e-014 -6.02303e-014
Spine  10.1666 0.210221 8.77841
Spine1  -3.67351 1.25941 -1.45339
HEad  -6.04539 -1.53041 2.89166
LeftShoulder1  1.46587 -0.549445 -30.1044
LeftArm  20.3919 -8.56325 -36.3074
LeftForeArm  3.75166 -26.1167 -5.40979
LeftHand  0.443261 -5.19967 -4.54657
RightShoulder  7.16582 10.5372 44.6067
RightArm  17.6186 4.84031 10.0322
RightForeArm  -9.35691 20.1655 7.24237
RightHand  -0.0322751 4.23937 -0.593987
LeftUpLeg  -26.6398 11.524 8.00398
LeftLeg  53.4768 1.53393 2.68846
LeftFoot  -2.22344 0.640308 -7.85574
LeftToes  2.52163e-011 5.65494e-011 -1.09494e-012
232
root  -49.6608 38.7468 -39.4729 3.66324 20.4645 -2.03769
RightUpLeg  -6.87966 -4.30152 4.46321
RightLeg  20.3225 -10.6522 -2.57301
RightFoot  -18.912 0.0263706 2.33398
RightToes  1.22775e-009 1.2921e-014 -6.02303e-014
Spine  9.78803 1.06982 8.01394
Spine1  -4.21152 2.12088 -3.59346
HEad  -5.5989 -1.82346 2.68419
LeftShoulder1  1.38121 -0.250901 -30.7282
LeftArm  16.9916 -5.52132 -33.7863
LeftForeArm  5.09823 -27.3691 -5.62681
LeftHand  0.464873 -5.17304 -4.79673
RightShoulder  7.60336 11.4983 44.2765
RightArm  17.3005 5.67541 10.9241
RightForeArm  -9.73224 24.1748 5.65358
RightHand  -0.0335282 4.38137 -0.630347
LeftUpLeg  -28.8689 12.5204 6.43168
LeftLeg  42.6463 2.06257 2.41533
LeftFoot  -3.03128 0.632324 -8.44432
LeftToes  2.52163e-011 5.65494e-011 -1.09494e-012
233
root  -48.954 38.9583 -38.1674 4.1757 18.1171 -0.822647
RightUpLeg  -2.7502 -3.67933 2.73296
RightLeg  16.2957 -9.24627 -2.00211
RightFoot  -18.6662 0.0396925 2.59477
RightToes  1.22775e-009 1.2921e-014 -6.02303e-014
Spine  9.58298 1.90004 7.43667
Spine1  -4.66053 3.08925 -5.91422
HEad  -5.52712 -1.91882 2.45155
LeftShoulder1  1.27224 0.0736916 -31.0306
LeftArm  12.72 -1.98445 -31.3683
LeftForeArm  6.05064 -29.1774 -6.00417
LeftHand  0.480744 -5.07555 -5.02326
RightShoulder  8.04673 12.3538 44.3259
RightArm  12.7188 6.41398 11.6281
RightForeArm  -5.13159 28.2582 6.38139
RightHand  -0.0311337 4.27323 -0.653034
LeftUpLeg  -29.5329 14.8509 5.01737
LeftLeg  29.1527 0.789556 0.811303
LeftFoot  -3.03872 0.733113 -9.83297
LeftToes  2.52163e-011 5.65494e-011 -1.09494e-012
